.
 
http://www.scenetime.com    -   SceneTime [ We been having it ] !!!


How come you press harder on a remote control when you know the battery is dead? so you better seed to get speed ;)

        Seed back for speed


...................................NFO:.................................................   
                                                                                  :::   .:         ::     .::        ::    .::.        .:.     .                       
              :::::. :::::                              ::::::  :::::.                              .:::::::.                                   .: 
   :::::..:::::                              :::::: .::::.                              :::::::::::                                  .::::. :::::.    
   :::::..:::::         ::::::::::::.        ::::::.::::.         ::::::::::::.        .::::: ::::::         ::::. .:::  ::::.       .:::::.:::::.    
   :::::..:::::         ::::::..:::::        :::::::::::          ::::::..:::::.       .::::: ::::::         .:::. ::::  ::::        .:::::::::::.    
   :::::. :::::         :::::. .:::::        ::::::::::.          ::::::  ::::::       .::::: ::::::         .:::. ::::..::::        .:::::::::::.    
   :::::..:::::         :::::. .:::::        ::::::::::           ::::::  :::::.       .::::: ::::::         .::::.::::.:::::        .:::::::::::.    
   :::::..:::::         :::::. .:::::        ::::::::::.          ::::::  :::::.       .::::: ::::::          ::::::::::::::.        .:::::::::::.    
   :::::..:::::         :::::. .:::::        :::::::::::.         ::::::  :::::.       .::::: ::::::          .:::::::::::::         .:::::::::::.    
   .::::..:::::         :::::. .:::::        :::::: :::::         ::::::  :::::.       .::::: :::::.          .:::::. ::::::         .:::::.:::::.    
    ::::::::::.         :::::. .:::::        :::::: .::::.        ::::::  :::::.        :::::::::::           .:::::. ::::::         .:::::  ::::.    
     .::::::.           :::::. .:::::        ::::::  :::::.       ::::::  :::::.         ..::::::.             :::::  .::::.         .:::::  ::::.                                  
   
    
                     NOTES                                      NOTES                                 

                     NOTES                                      NOTES          
                                   
                                                                

  Encoded By .......:UnKnOwN                                                     Release Date ......... 2011
  Runtime ..........:1:20                                                        Source       ......... WTF is that?
  IMDb URL .........:http://www.imdb.com/title/tt1520956/                        File Type    ......... Single AVI
  Language .........:English                                                     PS3 Compatible ....... Get a Sega Mega Drive and see what happens
  File Size ........:1.01gb                                                      Genre        ......... Horror/Thriller

Video
ID                               : 0
Format                           : MPEG-4 Visual
Format profile                   : Advanced Simple@L5
Format settings, BVOP            : Yes
Format settings, QPel            : No
Format settings, GMC             : No warppoints
Format settings, Matrix          : Default (H.263)
Codec ID                         : XVID
Codec ID/Hint                    : XviD
Duration                         : 1h 20mn
Bit rate                         : 1 378 Kbps
Width                            : 672 pixels
Height                           : 384 pixels
Display aspect ratio             : 16:9
Frame rate                       : 23.976 fps
Color space                      : YUV
Chroma subsampling               : 4:2:0
Bit depth                        : 8 bits
Scan type                        : Progressive
Bits/(Pixel*Frame)               : 0.223
Stream size                      : 793 MiB (78%)
Writing library                  : XviD 1.2.1 (UTC 2008-12-04)

Audio
ID                               : 1
Format                           : AC-3
Format/Info                      : Audio Coding 3
Mode extension                   : CM (complete main)
Codec ID                         : 2000
Duration                         : 1h 20mn
Bit rate mode                    : Constant
Bit rate                         : 384 Kbps
Channel(s)                       : 6 channels
Channel positions                : Front: L C R, Side: L R, LFE
Sampling rate                    : 48.0 KHz
Bit depth                        : 16 bits
Stream size                      : 221 MiB (22%)
Alignment                        : Aligned on interleaves
Interleave, duration             : 32 ms (0.77 video frame)


                                                                    SYSPNOSIS
                               A young man must escape from a mysterious locked vault before he dies of dehydration.
                                                                   RELEASE INFO
                                    
                                                                         enjoy. 
                                         


                             
                                               
                                                     
                                                                 LOOKING FOR
                                                                                                                
                                               Atari 2600 with the brown wodded sides and space inavders
                             




                             
                                            GREETZ & RESPECT                   
                              
                                                            NOBODY YET WILL LET YOU KNOW

                                                            MORE GOODIES COMING REAL SOON